<svg width="50" height="38" viewBox="0 0 50 38" fill="none" xmlns="http://www.w3.org/2000/svg">
<path d="M50 20.1218H37.8727C38.0801 11.2834 40.5869 10.2802 43.7354 9.9938L44.9495 9.84329V0.124603L43.55 0.199604C39.4386 0.430916 34.8932 1.17208 31.8606 4.91576C29.2023 8.19758 28.0303 13.5592 28.0303 21.7898V37.041H50V20.1218Z" fill="#01FEFF"/>
<path d="M21.9688 37.041V20.1218H10.0033C10.2107 11.2834 12.6364 10.2802 15.7849 9.9938L16.9182 9.84329V0.124603L15.5996 0.199604C11.4882 0.430916 6.90208 1.17208 3.86951 4.91576C1.21143 8.19758 -0.000946045 13.5592 -0.000946045 21.7898V37.041H21.9688Z" fill="#01FEFF"/>
</svg>
