<svg width="135" height="161" viewBox="0 0 135 161" fill="none" xmlns="http://www.w3.org/2000/svg">
<path fill-rule="evenodd" clip-rule="evenodd" d="M41.3779 91.0775C41.3779 89.6145 41.3779 88.883 41.6626 88.3243C41.9131 87.8327 42.3127 87.4331 42.8042 87.1827C43.363 86.8979 44.0945 86.8979 45.5575 86.8979H89.4432C90.9062 86.8979 91.6377 86.8979 92.1965 87.1827C92.688 87.4331 93.0877 87.8327 93.3381 88.3243C93.6228 88.883 93.6228 89.6145 93.6228 91.0775V160.041L67.5004 146.98L41.3779 160.041L41.3779 91.0775Z" fill="#9CA3AF"/>
<path fill-rule="evenodd" clip-rule="evenodd" d="M67.5019 123.741L51.5605 131.983L41.2753 117.277L23.3298 117.166L21.0569 99.3647L5.21836 90.9271L11.4785 74.1086L1.37533 59.2769L14.7344 47.294L12.6811 29.466L30.0787 25.064L36.5456 8.32388L53.9961 12.5111L67.5019 0.693848L81.0076 12.5111L98.4581 8.32388L104.925 25.064L122.323 29.466L120.269 47.294L133.628 59.2769L123.525 74.1086L129.785 90.9271L113.947 99.3647L111.674 117.166L93.7285 117.277L83.4432 131.983L67.5019 123.741Z" fill="#01FEFF"/>
<circle cx="67.5009" cy="67.306" r="47.0204" fill="#0A0F2C"/>
<path d="M84.3761 51.4224L89.812 57.0673L59.9151 85.8569L45.1396 71.0815L50.6811 65.5401L60.0181 74.8764L84.3761 51.4224Z" fill="white"/>
</svg>
